<!-- <svg width="10" height="10" viewBox="0 0 25 25" fill="none" xmlns="http://www.w3.org/2000/svg">
<path d="M11.5 13.5007V3.50073H12.5V12.5H21.5V13.5L11.5 13.5007Z" fill="#23255A"/>
<path fill-rule="evenodd" clip-rule="evenodd" d="M12.5 25C19.4036 25 25 19.4036 25 12.5C25 5.59644 19.4036 0 12.5 0C5.59644 0 0 5.59644 0 12.5C0 19.4036 5.59644 25 12.5 25ZM12.5 24C18.8513 24 24 18.8513 24 12.5C24 6.14873 18.8513 1 12.5 1C6.14873 1 1 6.14873 1 12.5C1 18.8513 6.14873 24 12.5 24Z" fill="#23255A"/>
</svg> -->


<svg width="12" height="12" viewBox="0 0 12 12" fill="none" xmlns="http://www.w3.org/2000/svg">
<path d="M5.6 6.40029V2.40029H6V6H9.6V6.4L5.6 6.40029Z" fill="#BBBECE"/>
<path fill-rule="evenodd" clip-rule="evenodd" d="M6 11C8.76142 11 11 8.76142 11 6C11 3.23858 8.76142 1 6 1C3.23858 1 1 3.23858 1 6C1 8.76142 3.23858 11 6 11ZM6 10.6C8.54051 10.6 10.6 8.54051 10.6 6C10.6 3.45949 8.54051 1.4 6 1.4C3.45949 1.4 1.4 3.45949 1.4 6C1.4 8.54051 3.45949 10.6 6 10.6Z" fill="#BBBECE"/>
<path d="M5.6 6.40029V2.40029H6V6H9.6V6.4L5.6 6.40029Z" stroke="#BBBECE" stroke-width="0.5"/>
<!-- <path fill-rule="evenodd" clip-rule="evenodd" d="M6 11C8.76142 11 11 8.76142 11 6C11 3.23858 8.76142 1 6 1C3.23858 1 1 3.23858 1 6C1 8.76142 3.23858 11 6 11ZM6 10.6C8.54051 10.6 10.6 8.54051 10.6 6C10.6 3.45949 8.54051 1.4 6 1.4C3.45949 1.4 1.4 3.45949 1.4 6C1.4 8.54051 3.45949 10.6 6 10.6Z" stroke="#BBBECE" stroke-width="0.5"/> -->
</svg>
