<svg width="107" height="60" viewBox="0 0 107 60" fill="none" xmlns="http://www.w3.org/2000/svg">
<path d="M24.6494 4.90418V31.3631L25.0454 55.1167L75.8518 59.9994L74.8621 0.0214844L24.6494 4.90418Z" fill="#E6EEF4"/>
<rect x="47" width="60" height="60" rx="30" fill="#E6EEF4"/>
<rect y="5" width="50" height="50" rx="25" fill="#E6EEF4"/>
<rect x="52" y="5" width="50" height="50" rx="25" fill="#23255A"/>
<path d="M67.1001 30.7113C67.7134 30.1646 68.2134 29.6913 68.6001 29.2913C69.0001 28.8913 69.3134 28.5313 69.5401 28.2113C69.7801 27.8913 69.9467 27.5913 70.0401 27.3113C70.1334 27.018 70.1801 26.7113 70.1801 26.3913C70.1801 25.9246 70.0601 25.5313 69.8201 25.2113C69.5934 24.8913 69.2934 24.6446 68.9201 24.4713C68.5601 24.298 68.1534 24.2113 67.7001 24.2113C67.3401 24.2113 66.9801 24.278 66.6201 24.4113C66.2601 24.5446 65.9067 24.7646 65.5601 25.0713C65.2267 25.3646 64.9134 25.7646 64.6201 26.2713C64.5801 26.3513 64.5134 26.398 64.4201 26.4113C64.3401 26.4246 64.2401 26.398 64.1201 26.3313L62.6401 25.5513C62.5201 25.4846 62.4534 25.398 62.4401 25.2913C62.4267 25.1846 62.4601 25.078 62.5401 24.9713C63.1934 23.958 63.9734 23.218 64.8801 22.7513C65.8001 22.2713 66.8067 22.0313 67.9001 22.0313C68.8867 22.0313 69.7667 22.2046 70.5401 22.5513C71.3134 22.8846 71.9267 23.378 72.3801 24.0313C72.8334 24.6846 73.0601 25.478 73.0601 26.4113C73.0601 26.9713 72.9601 27.498 72.7601 27.9913C72.5734 28.4846 72.2601 28.9846 71.8201 29.4913C71.3801 29.998 70.7934 30.558 70.0601 31.1713L66.2401 34.3913C66.1601 34.4446 66.1201 34.498 66.1201 34.5513C66.1334 34.6046 66.2134 34.6313 66.3601 34.6313H72.8601C73.0867 34.6313 73.2001 34.7246 73.2001 34.9113V36.7513C73.2001 36.8446 73.1734 36.9246 73.1201 36.9913C73.0667 37.0446 72.9734 37.0713 72.8401 37.0713H62.8201C62.6601 37.0713 62.5467 37.0446 62.4801 36.9913C62.4267 36.938 62.4001 36.838 62.4001 36.6913V35.3913C62.4001 35.3113 62.4134 35.238 62.4401 35.1713C62.4801 35.0913 62.5534 34.9913 62.6601 34.8713C62.7801 34.738 62.9601 34.5713 63.2001 34.3713L67.1001 30.7113ZM75.7587 37.0713C75.5187 37.0713 75.3987 36.9513 75.3987 36.7113V26.8113C75.3987 26.5846 75.492 26.4713 75.6787 26.4713H77.6587C77.8453 26.4713 77.9387 26.5713 77.9387 26.7713V27.8113C77.9387 27.8913 77.9587 27.9446 77.9987 27.9713C78.0387 27.9846 78.092 27.958 78.1587 27.8913C78.532 27.558 78.892 27.2713 79.2387 27.0313C79.5987 26.7913 79.9653 26.6046 80.3387 26.4713C80.7253 26.3246 81.132 26.2513 81.5587 26.2513C82.3053 26.2513 82.9187 26.4246 83.3987 26.7713C83.8787 27.118 84.212 27.558 84.3987 28.0913C84.4253 28.1446 84.4653 28.1646 84.5187 28.1513C84.572 28.138 84.6253 28.1046 84.6787 28.0513C85.0253 27.7046 85.392 27.398 85.7787 27.1313C86.1653 26.8646 86.5653 26.658 86.9787 26.5113C87.392 26.3513 87.8053 26.2713 88.2187 26.2713C89.1653 26.2713 89.912 26.558 90.4587 27.1313C91.0053 27.6913 91.2787 28.458 91.2787 29.4313V36.6513C91.2787 36.9313 91.1387 37.0713 90.8587 37.0713H89.0187C88.8987 37.0713 88.812 37.0446 88.7587 36.9913C88.7053 36.938 88.6787 36.8446 88.6787 36.7113V29.8313C88.6787 29.3113 88.5453 28.9113 88.2787 28.6313C88.0253 28.338 87.6387 28.1913 87.1187 28.1913C86.812 28.1913 86.5187 28.2513 86.2387 28.3713C85.9587 28.478 85.7053 28.618 85.4787 28.7913C85.252 28.9646 85.052 29.138 84.8787 29.3113C84.7853 29.4046 84.7187 29.498 84.6787 29.5913C84.652 29.6713 84.6387 29.7713 84.6387 29.8913V36.6513C84.6387 36.9313 84.4987 37.0713 84.2187 37.0713H82.3787C82.272 37.0713 82.1853 37.0446 82.1187 36.9913C82.0653 36.938 82.0387 36.8446 82.0387 36.7113V29.8313C82.0387 29.3113 81.912 28.9113 81.6587 28.6313C81.4053 28.338 81.012 28.1913 80.4787 28.1913C80.0253 28.1913 79.6053 28.3046 79.2187 28.5313C78.8453 28.758 78.4387 29.098 77.9987 29.5513V36.6713C77.9987 36.938 77.8453 37.0713 77.5387 37.0713H75.7587Z" fill="white"/>
<rect x="5" y="11" width="40" height="40" rx="20" fill="#292D5C" fill-opacity="0.1"/>
<path d="M19.738 34.8513C19.9513 34.8513 20.058 34.9446 20.058 35.1313V36.7713C20.058 36.838 20.0313 36.9046 19.978 36.9713C19.9246 37.038 19.838 37.0713 19.718 37.0713H12.118C11.9046 37.0713 11.798 36.978 11.798 36.7913V35.1313C11.798 34.9446 11.898 34.8513 12.098 34.8513H14.338C14.458 34.8513 14.518 34.8113 14.518 34.7313V25.4313C14.518 25.258 14.438 25.1913 14.278 25.2313L12.158 25.9313C11.9046 25.998 11.778 25.8913 11.778 25.6113V24.4513C11.778 24.3313 11.798 24.2513 11.838 24.2113C11.878 24.158 11.9446 24.1046 12.038 24.0513L15.258 22.4313C15.418 22.3513 15.5446 22.298 15.638 22.2713C15.7446 22.2446 15.8713 22.2313 16.018 22.2313H17.218C17.3913 22.2313 17.478 22.338 17.478 22.5513V34.6713C17.478 34.7913 17.538 34.8513 17.658 34.8513H19.738ZM22.4208 37.0713C22.1808 37.0713 22.0608 36.9513 22.0608 36.7113V26.8113C22.0608 26.5846 22.1541 26.4713 22.3408 26.4713H24.3208C24.5074 26.4713 24.6008 26.5713 24.6008 26.7713V27.8113C24.6008 27.8913 24.6208 27.9446 24.6608 27.9713C24.7008 27.9846 24.7541 27.958 24.8208 27.8913C25.1941 27.558 25.5541 27.2713 25.9008 27.0313C26.2608 26.7913 26.6274 26.6046 27.0008 26.4713C27.3874 26.3246 27.7941 26.2513 28.2208 26.2513C28.9674 26.2513 29.5808 26.4246 30.0608 26.7713C30.5408 27.118 30.8741 27.558 31.0608 28.0913C31.0874 28.1446 31.1274 28.1646 31.1808 28.1513C31.2341 28.138 31.2874 28.1046 31.3408 28.0513C31.6874 27.7046 32.0541 27.398 32.4408 27.1313C32.8274 26.8646 33.2274 26.658 33.6408 26.5113C34.0541 26.3513 34.4674 26.2713 34.8808 26.2713C35.8274 26.2713 36.5741 26.558 37.1208 27.1313C37.6674 27.6913 37.9408 28.458 37.9408 29.4313V36.6513C37.9408 36.9313 37.8008 37.0713 37.5208 37.0713H35.6808C35.5608 37.0713 35.4741 37.0446 35.4208 36.9913C35.3674 36.938 35.3408 36.8446 35.3408 36.7113V29.8313C35.3408 29.3113 35.2074 28.9113 34.9408 28.6313C34.6874 28.338 34.3008 28.1913 33.7808 28.1913C33.4741 28.1913 33.1808 28.2513 32.9008 28.3713C32.6208 28.478 32.3674 28.618 32.1408 28.7913C31.9141 28.9646 31.7141 29.138 31.5408 29.3113C31.4474 29.4046 31.3808 29.498 31.3408 29.5913C31.3141 29.6713 31.3008 29.7713 31.3008 29.8913V36.6513C31.3008 36.9313 31.1608 37.0713 30.8808 37.0713H29.0408C28.9341 37.0713 28.8474 37.0446 28.7808 36.9913C28.7274 36.938 28.7008 36.8446 28.7008 36.7113V29.8313C28.7008 29.3113 28.5741 28.9113 28.3208 28.6313C28.0674 28.338 27.6741 28.1913 27.1408 28.1913C26.6874 28.1913 26.2674 28.3046 25.8808 28.5313C25.5074 28.758 25.1008 29.098 24.6608 29.5513V36.6713C24.6608 36.938 24.5074 37.0713 24.2008 37.0713H22.4208Z" fill="white"/>
</svg>
