<svg width="26" height="15" viewBox="0 0 26 15" fill="none" xmlns="http://www.w3.org/2000/svg">
<path opacity="0.25" d="M19.7658 10.5735C19.2104 10.9326 18.6045 11.2766 17.9574 11.5833L18.6867 12.8475C18.8794 13.1804 19.2272 13.3655 19.5844 13.3655C19.7602 13.3655 19.9378 13.3207 20.1005 13.2272C20.5961 12.941 20.7663 12.3089 20.4802 11.8134L19.7639 10.5735H19.7658ZM13.0596 12.7596H13.0522C13.0073 12.7596 12.9624 12.7559 12.9175 12.7559C12.6146 12.7503 12.3153 12.7334 12.0199 12.7017V13.964C12.0199 14.5362 12.4836 15 13.0559 15C13.6281 15 14.0919 14.5362 14.0919 13.964V12.7054C13.7965 12.7353 13.4972 12.7522 13.1943 12.7559C13.1494 12.7559 13.1045 12.7596 13.0596 12.7596ZM24.6374 7.05585L23.9473 6.71176C23.8688 6.90064 23.7622 7.08017 23.6238 7.24473C23.5733 7.30645 23.203 7.74218 22.5765 8.34248L23.7135 8.90911C23.8613 8.98392 24.0202 9.01758 24.1755 9.01758C24.5551 9.01758 24.9216 8.80813 25.103 8.44346C25.3574 7.93106 25.1498 7.31019 24.6392 7.05585H24.6374ZM23.0534 5.74118C23.0403 5.52986 22.9618 5.32041 22.8159 5.14462C22.6401 4.93517 18.4586 0 13.0465 0H13.0297C7.75232 0.00935046 3.4829 4.92395 3.30337 5.1334C3.09205 5.37838 3.01725 5.69443 3.07148 5.9899C3.08644 6.20309 3.16685 6.41441 3.31646 6.5902C3.49599 6.79965 7.76541 11.7143 13.0428 11.7236H13.0596C18.4717 11.7236 22.6532 6.7903 22.829 6.57898C23.0328 6.33587 23.1039 6.0273 23.0534 5.73744V5.74118ZM2.48801 7.24473C2.34962 7.08017 2.24303 6.90064 2.16449 6.71176L1.47442 7.05585C0.962017 7.31019 0.754438 7.93293 1.01064 8.44346C1.19204 8.80626 1.55858 9.01758 1.9382 9.01758C2.09342 9.01758 2.25051 8.98205 2.40012 8.90911L3.53713 8.34248C2.91065 7.74218 2.54037 7.30645 2.48988 7.24473H2.48801ZM5.62976 11.8134C5.34364 12.3089 5.51382 12.941 6.00939 13.2272C6.17209 13.3207 6.34975 13.3655 6.52554 13.3655C6.88272 13.3655 7.23056 13.1804 7.42318 12.8475L8.15251 11.5833C7.50546 11.2766 6.89955 10.9326 6.34414 10.5735L5.62789 11.8134H5.62976Z" fill="#23255A"/>
</svg>
