<svg width="24" height="14" viewBox="0 0 24 14" fill="none" xmlns="http://www.w3.org/2000/svg">

<path d="M23.8822 6.85596C23.8666 6.60361 23.7728 6.35349 23.5986 6.14356C23.3887 5.89344 18.3952 0 11.9323 0H11.9122C5.61006 0.0111661 0.511639 5.88004 0.297251 6.13016C0.0448977 6.42272 -0.0444308 6.80013 0.0203323 7.15298C0.038198 7.40756 0.134226 7.65991 0.312883 7.86984C0.527271 8.11996 5.62569 13.9888 11.9278 14H11.9479C18.4108 14 23.4043 8.10879 23.6142 7.85644C23.8576 7.56612 23.9425 7.19764 23.8822 6.85149V6.85596ZM11.9479 11.5301H11.9323C7.96163 11.5234 4.35723 8.43707 2.89001 6.99218C4.36393 5.5406 7.94377 2.47886 11.9166 2.47216H11.9323C16.0191 2.47216 19.5877 5.56963 21.0259 7.00782C19.5788 8.4527 16.0213 11.5278 11.9479 11.5278V11.5301ZM8.48197 7.00112C8.48197 8.91275 10.0318 10.4626 11.9434 10.4626C13.8551 10.4626 15.4049 8.91275 15.4049 7.00112C15.4049 6.83363 15.3893 6.67283 15.367 6.51204C15.0498 6.79566 14.6255 6.95869 14.1677 6.93189C13.2588 6.87829 12.5665 6.09667 12.6201 5.18775C12.6536 4.62275 12.9685 4.14261 13.4196 3.87239C12.9707 3.66023 12.4727 3.53964 11.9457 3.53964C10.0341 3.53964 8.4842 5.08949 8.4842 7.00112H8.48197Z" fill="#23255A"/>
</svg>
