<svg width="25" height="26" viewBox="0 0 25 26" fill="none" xmlns="http://www.w3.org/2000/svg">
<g id="icon=home">
<path id="Vector (Stroke)" fill-rule="evenodd" clip-rule="evenodd" d="M23.8797 15.2239L23.9969 12.6469C24.001 12.555 24.001 12.4603 23.9969 12.3684L23.9958 12.3457V12.3152C23.9503 11.5663 23.6465 10.8391 23.0792 10.2738L23.0777 10.2723L14.7381 1.92762C13.5009 0.690459 11.4962 0.691328 10.2625 1.92702L1.9208 10.271C1.35345 10.8363 1.04974 11.5636 1.00417 12.3125V12.3429L1.00313 12.3656C0.998955 12.4575 0.998955 12.5522 1.00313 12.6441L1.00417 12.6668V23.6115C1.00417 23.8256 1.17848 24 1.39275 24H7.33565V13.892C7.33565 12.5732 8.4055 11.5035 9.72423 11.5035H15.2785C16.5973 11.5035 17.6671 12.5732 17.6671 13.892V24H23.61C23.8243 24 23.9986 23.8256 23.9986 23.6115V15.105L23.8797 15.2239ZM24.9986 23.6115C24.9986 24.378 24.3765 25 23.61 25H16.6671V13.892C16.6671 13.1255 16.045 12.5035 15.2785 12.5035H9.72423C8.95773 12.5035 8.33565 13.1255 8.33565 13.892V25H1.39275C0.62625 25 0.00416574 24.378 0.00416574 23.6115V12.6895C-0.00138858 12.5673 -0.00138858 12.4424 0.00416574 12.3202V12.2841C0.0569318 11.2927 0.456843 10.318 1.21501 9.56262L9.55482 1.22049C11.1795 -0.406832 13.8178 -0.406832 15.4452 1.22049L23.785 9.5654C24.3187 10.0971 24.6749 10.7376 24.8574 11.4161C24.9342 11.7014 24.9802 11.9934 24.9958 12.2869V12.323C25.0013 12.4434 25.0014 12.5665 24.9961 12.687C24.996 12.6878 24.996 12.6887 24.996 12.6895C24.9959 12.6905 24.9959 12.6914 24.9958 12.6923L24.9986 12.6895V23.6115Z" />
</g>
</svg>
