<?xml version="1.0" encoding="utf-8"?>
<!-- Generator: Adobe Illustrator 28.0.0, SVG Export Plug-In . SVG Version: 6.00 Build 0)  -->
<svg version="1.1" id="Layer_1" xmlns="http://www.w3.org/2000/svg" xmlns:xlink="http://www.w3.org/1999/xlink" x="0px" y="0px"
	 viewBox="0 0 25 26" style="enable-background:new 0 0 25 26;" xml:space="preserve">
<style type="text/css">
	.st0{fill-rule:evenodd;clip-rule:evenodd;fill:#23255A;}
</style>
<path class="st0" d="M21.8,9.7c0.1,0.3,0.4,0.5,0.7,0.5h0.6c1,0,1.9,0.8,1.9,1.9v1.8c0,1-0.8,1.9-1.9,1.9h-0.6
	c-0.3,0-0.6,0.2-0.7,0.5c-0.1,0.3-0.2,0.6-0.4,1c-0.1,0.3-0.1,0.7,0.1,0.9l0.4,0.4c0.7,0.7,0.7,1.9,0,2.7l-1.3,1.3
	c-0.7,0.7-1.9,0.7-2.7,0L17.6,22c-0.2-0.2-0.6-0.3-0.9-0.1c-0.3,0.2-0.6,0.3-1,0.4c-0.3,0.1-0.5,0.4-0.5,0.7v0.6
	c0,1-0.8,1.9-1.9,1.9h-1.8c-1,0-1.9-0.8-1.9-1.9V23c0-0.3-0.2-0.6-0.5-0.7c-0.3-0.1-0.6-0.2-1-0.4C8,21.7,7.6,21.8,7.4,22L7,22.5
	l-0.7-0.7l0.4-0.4c0.5-0.5,1.3-0.7,2-0.3c0.3,0.1,0.6,0.3,0.9,0.4c0.7,0.2,1.2,0.9,1.2,1.7v0.6c0,0.5,0.4,0.9,0.9,0.9h1.8
	c0.5,0,0.9-0.4,0.9-0.9V23c0-0.7,0.5-1.4,1.2-1.7c0.3-0.1,0.6-0.2,0.9-0.4c0.7-0.3,1.5-0.2,2,0.3l0.4,0.4c0.3,0.3,0.9,0.3,1.3,0
	l1.3-1.3c0.3-0.3,0.3-0.9,0-1.3l-0.4-0.4c-0.5-0.5-0.7-1.3-0.3-2c0.1-0.3,0.3-0.6,0.4-0.9c0.2-0.7,0.9-1.2,1.7-1.2h0.6
	c0.5,0,0.9-0.4,0.9-0.9v-1.8c0-0.5-0.4-0.9-0.9-0.9h-0.6c-0.7,0-1.4-0.5-1.7-1.2c-0.1-0.3-0.2-0.6-0.4-0.9c-0.3-0.7-0.2-1.5,0.3-2
	l0.4-0.4c0.3-0.3,0.3-0.9,0-1.3L20,4.2c-0.3-0.3-0.9-0.3-1.3,0l-0.4,0.4c-0.5,0.5-1.3,0.7-2,0.3c-0.3-0.1-0.6-0.3-0.9-0.4
	c-0.7-0.2-1.2-0.9-1.2-1.7V2.4c0-0.5-0.4-0.9-0.9-0.9h-1.8c-0.5,0-0.9,0.4-0.9,0.9V3c0,0.7-0.5,1.4-1.2,1.7C9.3,4.8,9,4.9,8.7,5
	C8,5.3,7.2,5.2,6.7,4.7L6.2,4.2C5.9,3.9,5.3,3.9,5,4.2L3.7,5.5c-0.3,0.3-0.3,0.9,0,1.3l0.4,0.4c0.5,0.5,0.7,1.3,0.3,2
	c-0.1,0.3-0.3,0.6-0.4,0.9c-0.2,0.7-0.9,1.2-1.7,1.2H1.9c-0.5,0-0.9,0.4-0.9,0.9v1.8c0,0.5,0.4,0.9,0.9,0.9h0.6
	c0.7,0,1.4,0.5,1.7,1.2c0.1,0.3,0.2,0.6,0.4,0.9c0.3,0.7,0.2,1.5-0.3,2l-0.4,0.4c-0.3,0.3-0.3,0.9,0,1.3L5,21.8
	c0.3,0.3,0.9,0.3,1.3,0L7,22.5c-0.7,0.7-1.9,0.7-2.7,0L3,21.2c-0.7-0.7-0.7-1.9,0-2.7l0.4-0.4c0.2-0.2,0.3-0.6,0.1-0.9
	c-0.2-0.3-0.3-0.6-0.4-1c-0.1-0.3-0.4-0.5-0.7-0.5H1.9c-1,0-1.9-0.8-1.9-1.9v-1.8c0-1,0.8-1.9,1.9-1.9h0.6c0.3,0,0.6-0.2,0.7-0.5
	c0.1-0.3,0.2-0.6,0.4-1c0.1-0.3,0.1-0.7-0.1-0.9L3,7.5C2.3,6.7,2.3,5.5,3,4.8l1.3-1.3C5,2.8,6.2,2.8,7,3.5L7.4,4
	C7.6,4.2,8,4.3,8.3,4.1c0.3-0.2,0.6-0.3,1-0.4C9.5,3.6,9.7,3.3,9.7,3V2.4c0-1,0.8-1.9,1.9-1.9h1.8c1,0,1.9,0.8,1.9,1.9V3
	c0,0.3,0.2,0.6,0.5,0.7c0.3,0.1,0.6,0.2,1,0.4C17,4.3,17.4,4.2,17.6,4L18,3.5c0.7-0.7,1.9-0.7,2.7,0L22,4.8c0.7,0.7,0.7,1.9,0,2.7
	l-0.4,0.4c-0.2,0.2-0.3,0.6-0.1,0.9C21.5,9.1,21.7,9.4,21.8,9.7z M8.2,13c0,2.4,1.9,4.3,4.3,4.3c2.4,0,4.3-1.9,4.3-4.3
	s-1.9-4.3-4.3-4.3C10.1,8.7,8.2,10.6,8.2,13z M7.2,13c0,2.9,2.4,5.3,5.3,5.3c2.9,0,5.3-2.4,5.3-5.3s-2.4-5.3-5.3-5.3
	C9.6,7.7,7.2,10.1,7.2,13z"/>
</svg>