<svg width="25" height="25" viewBox="0 0 25 25" fill="none" xmlns="http://www.w3.org/2000/svg">
<path fill-rule="evenodd" clip-rule="evenodd" d="M13.7346 5.14157C14.1658 4.71038 14.4081 4.12554 14.4081 3.51572C14.4081 2.90589 14.1658 2.32105 13.7346 1.88986C13.3034 1.45866 12.7186 1.21642 12.1089 1.21642C11.4991 1.21642 10.9143 1.45866 10.4831 1.88986C10.0519 2.32105 9.80968 2.90589 9.80968 3.51572C9.80968 4.12554 10.0519 4.71038 10.4831 5.14157C10.9143 5.57277 11.4991 5.81501 12.1089 5.81501C12.7186 5.81501 13.3034 5.57277 13.7346 5.14157ZM14.5948 6.0017C15.2541 5.34238 15.6245 4.44814 15.6245 3.51572C15.6245 2.58329 15.2541 1.68905 14.5948 1.02973C13.9355 0.370405 13.0413 0 12.1089 0C11.1765 0 10.2823 0.370405 9.62296 1.02973C8.96366 1.68905 8.59326 2.58329 8.59326 3.51572C8.59326 4.44814 8.96366 5.34238 9.62296 6.0017C10.2823 6.66103 11.1765 7.03143 12.1089 7.03143C13.0413 7.03143 13.9355 6.66103 14.5948 6.0017Z" fill="#23255A"/>
<path fill-rule="evenodd" clip-rule="evenodd" d="M15.752 24C15.6655 23.9501 15.5818 23.8932 15.5023 23.8281C14.9435 23.3707 14.8186 22.7256 14.8332 22.1497L15.8329 22.175C15.8113 23.0281 16.2113 23.2687 17.1851 23.3687L18.7501 23.4V25H6.53969V23.4L8.25939 23.3687C9.28783 23.3375 9.53502 22.9375 9.61158 22.175V12.5459C9.62006 11.3641 8.43337 11.2421 7.25 11.2681C7.04608 11.2726 6.84225 11.2815 6.64466 11.2901C6.50954 11.296 6.37733 11.3017 6.25 11.3059V9.72022L15.8329 9.37491V10.3756L9.43205 10.6062C9.61919 10.6976 9.80197 10.8159 9.96789 10.9701C10.4054 11.3768 10.6151 11.9288 10.6116 12.549V22.2251L10.6066 22.2749C10.5635 22.7042 10.4566 23.2978 9.9983 23.7544C9.90268 23.8497 9.80019 23.9309 9.69242 24H15.752Z" fill="#23255A"/>
<path fill-rule="evenodd" clip-rule="evenodd" d="M14.8359 22.2646V9.99352H15.8359V22.2646H14.8359Z" fill="#23255A"/>
</svg>
