<svg width="94" height="24" viewBox="0 0 94 24" fill="none" xmlns="http://www.w3.org/2000/svg">
<path opacity="0.25" d="M29.1382 16.6102C28.305 17.1488 27.3962 17.665 26.4256 18.125L27.5196 20.0213C27.8085 20.5206 28.3303 20.7983 28.8661 20.7983C29.1298 20.7983 29.3962 20.731 29.6403 20.5907C30.3837 20.1615 30.6389 19.2134 30.2097 18.47L29.1354 16.6102H29.1382ZM19.079 19.8894H19.0677C19.0004 19.8894 18.9331 19.8838 18.8658 19.8838C18.4113 19.8754 17.9625 19.8502 17.5193 19.8025V21.696C17.5193 22.5543 18.215 23.25 19.0733 23.25C19.9317 23.25 20.6274 22.5543 20.6274 21.696V19.8081C20.1842 19.853 19.7354 19.8782 19.2809 19.8838C19.2136 19.8838 19.1463 19.8894 19.079 19.8894ZM36.4456 11.3338L35.4105 10.8176C35.2926 11.101 35.1327 11.3702 34.9252 11.6171C34.8494 11.7097 34.294 12.3633 33.3543 13.2637L35.0598 14.1137C35.2814 14.2259 35.5199 14.2764 35.7527 14.2764C36.3221 14.2764 36.8719 13.9622 37.144 13.4152C37.5255 12.6466 37.2142 11.7153 36.4484 11.3338H36.4456ZM34.0696 9.36177C34.05 9.04479 33.9322 8.73061 33.7134 8.46693C33.4497 8.15276 27.1774 0.75 19.0593 0.75H19.0341C11.118 0.764026 4.71385 8.13592 4.44456 8.4501C4.12758 8.81757 4.01537 9.29164 4.09672 9.73485C4.11916 10.0546 4.23978 10.3716 4.46419 10.6353C4.73348 10.9495 11.1376 18.3214 19.0537 18.3354H19.079C27.197 18.3354 33.4693 10.9355 33.733 10.6185C34.0387 10.2538 34.1453 9.79096 34.0696 9.35616V9.36177ZM3.22152 11.6171C3.01394 11.3702 2.85405 11.101 2.73623 10.8176L1.70114 11.3338C0.932528 11.7153 0.621159 12.6494 1.00546 13.4152C1.27756 13.9594 1.82737 14.2764 2.39681 14.2764C2.62963 14.2764 2.86527 14.2231 3.08968 14.1137L4.7952 13.2637C3.85548 12.3633 3.30006 11.7097 3.22432 11.6171H3.22152ZM7.93415 18.47C7.50496 19.2134 7.76023 20.1615 8.50359 20.5907C8.74764 20.731 9.01412 20.7983 9.27781 20.7983C9.81359 20.7983 10.3353 20.5206 10.6243 20.0213L11.7183 18.125C10.7477 17.665 9.83883 17.1488 9.00571 16.6102L7.93134 18.47H7.93415Z" fill="white"/>
<path d="M93.1299 11.0339C93.1065 10.6554 92.9658 10.2802 92.7045 9.96535C92.3896 9.59017 84.8994 0.75 75.2051 0.75H75.1749C65.7217 0.766749 58.0741 9.57007 57.7525 9.94525C57.374 10.3841 57.24 10.9502 57.3371 11.4795C57.3639 11.8613 57.508 12.2399 57.776 12.5548C58.0975 12.9299 65.7452 21.7333 75.1984 21.75H75.2285C84.9229 21.75 92.4131 12.9132 92.728 12.5347C93.0931 12.0992 93.2204 11.5465 93.1299 11.0272V11.0339ZM75.2285 18.0451H75.2051C69.2491 18.0351 63.8425 13.4056 61.6417 11.2383C63.8525 9.06089 69.2223 4.4683 75.1816 4.45825H75.2051C81.3352 4.45825 86.6882 9.10444 88.8455 11.2617C86.6748 13.4291 81.3386 18.0418 75.2285 18.0418V18.0451ZM70.0296 11.2517C70.0296 14.1191 72.3544 16.4439 75.2218 16.4439C78.0893 16.4439 80.414 14.1191 80.414 11.2517C80.414 11.0004 80.3906 10.7593 80.3571 10.5181C79.8814 10.9435 79.2449 11.188 78.5582 11.1478C77.1949 11.0674 76.1564 9.895 76.2368 8.53162C76.2871 7.68412 76.7594 6.96391 77.436 6.55858C76.7627 6.24035 76.0157 6.05946 75.2252 6.05946C72.3577 6.05946 70.0329 8.38423 70.0329 11.2517H70.0296Z" fill="white"/>
</svg>
