<svg viewBox="0 0 78 22" fill="none" xmlns="http://www.w3.org/2000/svg">
<path opacity="0.25" d="M26.6717 15.2977C25.895 15.7998 25.0478 16.281 24.143 16.7098L25.1628 18.4776C25.4322 18.943 25.9186 19.2019 26.418 19.2019C26.6639 19.2019 26.9123 19.1391 27.1398 19.0084C27.8328 18.6083 28.0707 17.7244 27.6706 17.0315L26.6691 15.2977H26.6717ZM17.2943 18.3547H17.2839C17.2211 18.3547 17.1584 18.3494 17.0956 18.3494C16.672 18.3416 16.2536 18.318 15.8404 18.2736V20.0387C15.8404 20.8389 16.4889 21.4874 17.2891 21.4874C18.0893 21.4874 18.7378 20.8389 18.7378 20.0387V18.2788C18.3246 18.3207 17.9062 18.3442 17.4826 18.3494C17.4199 18.3494 17.3571 18.3547 17.2943 18.3547ZM33.4837 10.3789L32.5188 9.89777C32.409 10.1619 32.2599 10.4129 32.0664 10.643C31.9958 10.7293 31.4781 11.3386 30.602 12.178L32.1919 12.9704C32.3985 13.075 32.6208 13.1221 32.8378 13.1221C33.3687 13.1221 33.8812 12.8292 34.1349 12.3193C34.4905 11.6027 34.2003 10.7346 33.4864 10.3789H33.4837ZM31.2689 8.54059C31.2505 8.2451 31.1407 7.95222 30.9367 7.70641C30.6909 7.41353 24.8438 0.512573 17.276 0.512573H17.2525C9.873 0.525648 3.90298 7.39784 3.65194 7.69072C3.35644 8.03329 3.25184 8.47522 3.32768 8.88839C3.3486 9.1865 3.46104 9.48199 3.67024 9.7278C3.92128 10.0207 9.89131 16.8929 17.2708 16.9059H17.2943C24.8621 16.9059 30.7092 10.0076 30.955 9.71211C31.2401 9.37216 31.3395 8.94069 31.2689 8.53536V8.54059ZM2.5118 10.643C2.31829 10.4129 2.16924 10.1619 2.05941 9.89777L1.09448 10.3789C0.377971 10.7346 0.0877086 11.6054 0.445962 12.3193C0.699616 12.8266 1.21215 13.1221 1.743 13.1221C1.96004 13.1221 2.1797 13.0724 2.3889 12.9704L3.97881 12.178C3.10279 11.3386 2.58502 10.7293 2.51442 10.643H2.5118ZM6.90499 17.0315C6.50489 17.7244 6.74286 18.6083 7.43583 19.0084C7.66333 19.1391 7.91176 19.2019 8.15757 19.2019C8.65703 19.2019 9.14342 18.943 9.41276 18.4776L10.4326 16.7098C9.52782 16.281 8.68056 15.7998 7.90391 15.2977L6.90237 17.0315H6.90499Z" fill="#23255A"/>
<path d="M77.6816 10.7986C77.6598 10.4458 77.5286 10.096 77.285 9.80248C76.9915 9.45273 70.009 1.21179 60.9718 1.21179H60.9437C52.1313 1.22741 45.0021 9.43399 44.7023 9.78374C44.3494 10.1928 44.2245 10.7206 44.3151 11.214C44.34 11.57 44.4743 11.9228 44.7241 12.2164C45.0239 12.5661 52.1532 20.7727 60.9656 20.7883H60.9937C70.0309 20.7883 77.0134 12.5505 77.3069 12.1976C77.6473 11.7917 77.7659 11.2764 77.6816 10.7924V10.7986ZM60.9937 17.3345H60.9718C55.4195 17.3252 50.3794 13.0095 48.3278 10.9891C50.3888 8.95933 55.3946 4.67804 60.9499 4.66868H60.9718C66.6864 4.66868 71.6766 8.99993 73.6876 11.011C71.6641 13.0314 66.6896 17.3314 60.9937 17.3314V17.3345ZM56.1471 11.0016C56.1471 13.6747 58.3143 15.8419 60.9874 15.8419C63.6605 15.8419 65.8277 13.6747 65.8277 11.0016C65.8277 10.7674 65.8058 10.5426 65.7746 10.3177C65.3312 10.7143 64.7378 10.9423 64.0977 10.9048C62.8267 10.8299 61.8587 9.7369 61.9336 8.46594C61.9804 7.67588 62.4208 7.00449 63.0515 6.62664C62.4239 6.32998 61.7275 6.16135 60.9905 6.16135C58.3175 6.16135 56.1503 8.32854 56.1503 11.0016H56.1471Z" fill="#23255A"/>
</svg>
