<svg viewBox="0 0 36 27" fill="none" xmlns="http://www.w3.org/2000/svg">
<path d="M30.5837 2.75901C30.5837 1.32241 30.1112 0.468214 29.1152 0.092886C28.8981 0.015232 28.3234 -0.023595 27.7743 0.015232C26.3697 0.105828 16.2049 0.235252 8.23659 0.248194L1.27706 0.274079L0.855659 0.571752C0.681129 0.699217 0.542194 0.797402 0.431595 0.920954C-0.00806808 1.41211 8.39233e-05 2.30413 8.39233e-05 7.02998C8.39233e-05 12.2069 0.0128555 12.3622 0.268253 12.7117C0.408718 12.9058 0.689651 13.1905 0.881199 13.3329C1.22598 13.5917 1.37922 13.6047 5.23569 13.5788C9.56465 13.5529 9.70511 13.527 10.2542 12.8281C10.5351 12.4787 10.7139 12.0257 11.7355 9.20429C12.5272 7.02998 12.8337 6.62876 13.7914 6.47346C14.4555 6.38286 14.9918 6.62876 15.426 7.22411C15.592 7.45707 16.1283 8.77719 16.6008 10.162C17.865 13.7988 17.8778 13.7988 21.0064 13.7988C22.9984 13.7988 23.4837 13.8765 23.7136 14.2389C23.8506 14.4418 26.5275 21.8121 28.363 27H34.9146C34.877 26.8957 34.8381 26.7879 34.7977 26.6764C33.8783 24.1268 31.9245 18.6134 31.0051 15.9343L30.4177 14.2518L30.5198 11.055L30.6092 7.85829L30.954 7.75475C31.1328 7.69003 31.6053 7.67709 31.9884 7.72886C33.5207 7.923 33.9421 7.87123 34.4402 7.45707C34.7594 7.19823 34.9382 6.90055 35.002 6.61582C35.1808 5.61926 34.3891 4.55799 33.3675 4.42857C31.4137 4.18266 30.7752 4.06618 30.6858 3.92382C30.6348 3.84616 30.5837 3.31553 30.5837 2.75901Z" fill="#23255A"/>
<ellipse cx="1.3325" cy="1.35397" rx="1.3325" ry="1.35397" transform="matrix(-1 0 0 1 24.1821 5.79492)" fill="white"/>
</svg>
