<svg width="24" height="15" viewBox="0 0 24 15" fill="none" xmlns="http://www.w3.org/2000/svg">
<path id="Vector" d="M23.9813 7.35596C23.9657 7.10361 23.8719 6.85349 23.6977 6.64356C23.4878 6.39344 18.4943 0.5 12.0314 0.5H12.0113C5.70918 0.511166 0.61076 6.38004 0.396372 6.63016C0.144019 6.92272 0.0546903 7.30013 0.119453 7.65298C0.137319 7.90756 0.233347 8.15991 0.412004 8.36984C0.626392 8.61996 5.72481 14.4888 12.0269 14.5H12.047C18.5099 14.5 23.5034 8.60879 23.7133 8.35644C23.9568 8.06612 24.0416 7.69764 23.9813 7.35149V7.35596ZM12.047 12.0301H12.0314C8.06075 12.0234 4.45635 8.93707 2.98913 7.49218C4.46305 6.0406 8.04289 2.97886 12.0158 2.97216H12.0314C16.1182 2.97216 19.6869 6.06963 21.125 7.50782C19.6779 8.9527 16.1204 12.0278 12.047 12.0278V12.0301ZM8.58109 7.50112C8.58109 9.41275 10.1309 10.9626 12.0426 10.9626C13.9542 10.9626 15.504 9.41275 15.504 7.50112C15.504 7.33363 15.4884 7.17283 15.4661 7.01204C15.149 7.29566 14.7247 7.45869 14.2668 7.43189C13.3579 7.37829 12.6656 6.59667 12.7192 5.68775C12.7527 5.12275 13.0676 4.64261 13.5187 4.37239C13.0698 4.16023 12.5718 4.03964 12.0448 4.03964C10.1332 4.03964 8.58333 5.58949 8.58333 7.50112H8.58109Z" fill="#292D5C" />
</svg>
