<svg version="1.1" id="Layer_1" xmlns="http://www.w3.org/2000/svg" xmlns:xlink="http://www.w3.org/1999/xlink" x="0px" y="0px"
	 viewBox="0 0 35 13.8" style="enable-background:new 0 0 35 13.8;" xml:space="preserve">
<style type="text/css">
	.st0{opacity:0.25;fill:#23255A;enable-background:new    ;}
</style>
<path class="st0" d="M33.4,4.5c-2-0.2-2.6-0.4-2.7-0.5c-0.1-0.1-0.1-0.6-0.1-1.2c0-1.4-0.5-2.3-1.5-2.7C29,0,28.6,0,28.3,0
	c0,0,0,0-0.1,0c0,0,0,0-0.1,0C26.5,0,3.6,0,1.7,0C-0.2,0,0,1.4,0,1.4v4.2C0,6,0,6.5,0,7c0,2.3,0,3.6,0,4.4c0,0-0.5,2,1.5,2.1
	c0.5,0,1.5,0,3.7,0c0.9,0,1.5,0,2.1,0c0.4,0,0.7,0,0.7,0c1.7-0.1,1.9-0.2,2.3-0.7c0.3-0.3,0.5-0.8,1.5-3.6c0.8-2.2,1.1-2.6,2.1-2.7
	c0.7-0.1,1.2,0.2,1.6,0.8c0.2,0.2,0.7,1.6,1.2,2.9c1.2,3.3,1.3,3.6,3.6,3.6h0c0.2,0,0.5,0,0.8,0c0.7,0,1.3,0,1.7,0
	c1.6,0,3.8-0.1,5.4-0.3c0.9-0.2,2.3-0.9,2.4-2.6v-3h3c0,0,1.1,0,1.4-1.1c0,0,0-0.1,0.1-0.1c0-0.1,0-0.2,0-0.4
	C35.2,4.7,33.4,4.5,33.4,4.5z M22.8,8.5c-0.7,0-1.3-0.6-1.3-1.4c0-0.7,0.6-1.4,1.3-1.4s1.3,0.6,1.3,1.4C24.2,7.9,23.6,8.5,22.8,8.5z
	"/>
</svg>