<svg width="40" height="15" viewBox="0 0 40 15" fill="none" xmlns="http://www.w3.org/2000/svg">
<path fill-rule="evenodd" clip-rule="evenodd" d="M5.80799 2.99583C5.80799 1.43592 6.32102 0.508403 7.40256 0.100859C7.63828 0.0165395 8.26225 -0.0256203 8.85848 0.0165395C10.3837 0.114912 21.421 0.255445 30.0733 0.269498L37.6302 0.297604L38.0877 0.620829L38.1256 0.648422C38.2975 0.773743 38.4362 0.874897 38.5482 1C39.0169 1.52364 39.0169 2.46691 39.0168 7.35821L39.0168 7.6334C39.0168 13.2547 39.0029 13.4233 38.7256 13.8028C38.573 14.0136 38.268 14.3227 38.06 14.4773C37.6856 14.7584 37.5192 14.7724 33.3317 14.7443C28.6312 14.7162 28.4787 14.6881 27.8825 13.9293C27.5774 13.5498 27.3833 13.058 26.274 9.99434C25.4143 7.6334 25.0816 7.19775 24.0416 7.02911C23.3206 6.93074 22.7382 7.19775 22.2668 7.8442C22.0865 8.09716 21.5042 9.53059 20.9911 11.0343C19.6184 14.9832 19.6045 14.9832 16.2074 14.9832C15.7009 14.9832 15.2842 14.9879 14.9397 15C11.2846 14.9761 6.40808 14.7767 5.91283 13.1151L5.87732 12.004L5.78025 8.53281L5.40588 8.42038C5.21175 8.35011 4.69872 8.33606 4.28274 8.39227C2.61884 8.60307 2.16126 8.54686 1.62049 8.09716C1.27385 7.81609 1.07972 7.49287 1.01039 7.18369C0.816271 6.10159 1.67596 4.94923 2.78523 4.8087C4.9067 4.54169 5.6 4.41521 5.69706 4.26062C5.75252 4.1763 5.80799 3.60012 5.80799 2.99583ZM15.6528 7.76203C15.6528 8.574 15.0051 9.23222 14.206 9.23222C13.4069 9.23222 12.7591 8.574 12.7591 7.76203C12.7591 6.95007 13.4069 6.29185 14.206 6.29185C15.0051 6.29185 15.6528 6.95007 15.6528 7.76203Z" fill="#292D5C" fill-opacity="0.1"/>
</svg>
