<svg width="94" height="24" viewBox="0 0 94 24" fill="none" xmlns="http://www.w3.org/2000/svg">
<path d="M36.6641 11.0339C36.6407 10.6554 36.5 10.2802 36.2387 9.96535C35.9238 9.59017 28.4336 0.75 18.7392 0.75H18.7091C9.25591 0.766749 1.60828 9.57007 1.2867 9.94525C0.908167 10.3841 0.774174 10.9502 0.871319 11.4795C0.898117 11.8613 1.04216 12.2399 1.31014 12.5548C1.63173 12.9299 9.27936 21.7333 18.7325 21.75H18.7627C28.4571 21.75 35.9473 12.9132 36.2621 12.5347C36.6273 12.0992 36.7546 11.5465 36.6641 11.0272V11.0339ZM18.7627 18.0451H18.7392C12.7833 18.0351 7.37666 13.4056 5.17583 11.2383C7.38671 9.06089 12.7565 4.4683 18.7158 4.45825H18.7392C24.8694 4.45825 30.2224 9.10444 32.3797 11.2617C30.209 13.4291 24.8728 18.0418 18.7627 18.0418V18.0451ZM13.5638 11.2517C13.5638 14.1191 15.8885 16.4439 18.756 16.4439C21.6234 16.4439 23.9482 14.1191 23.9482 11.2517C23.9482 11.0004 23.9248 10.7593 23.8913 10.5181C23.4156 10.9435 22.7791 11.188 22.0924 11.1478C20.729 11.0674 19.6906 9.895 19.771 8.53162C19.8212 7.68412 20.2936 6.96391 20.9702 6.55858C20.2969 6.24035 19.5499 6.05946 18.7593 6.05946C15.8919 6.05946 13.5671 8.38423 13.5671 11.2517H13.5638Z" fill="white"/>
<path opacity="0.25" d="M84.9897 16.6102C84.1566 17.1488 83.2477 17.665 82.2772 18.125L83.3712 20.0213C83.6601 20.5206 84.1819 20.7983 84.7176 20.7983C84.9813 20.7983 85.2478 20.731 85.4919 20.5907C86.2352 20.1615 86.4905 19.2134 86.0613 18.47L84.9869 16.6102H84.9897ZM74.9305 19.8894H74.9193C74.852 19.8894 74.7847 19.8838 74.7173 19.8838C74.2629 19.8754 73.8141 19.8502 73.3709 19.8025V21.696C73.3709 22.5543 74.0665 23.25 74.9249 23.25C75.7833 23.25 76.479 22.5543 76.479 21.696V19.8081C76.0357 19.853 75.5869 19.8782 75.1325 19.8838C75.0652 19.8838 74.9978 19.8894 74.9305 19.8894ZM92.2971 11.3338L91.262 10.8176C91.1442 11.101 90.9843 11.3702 90.7767 11.6171C90.701 11.7097 90.1456 12.3633 89.2059 13.2637L90.9114 14.1137C91.133 14.2259 91.3714 14.2764 91.6042 14.2764C92.1737 14.2764 92.7235 13.9622 92.9956 13.4152C93.3771 12.6466 93.0657 11.7153 92.2999 11.3338H92.2971ZM89.9212 9.36177C89.9015 9.04479 89.7837 8.73061 89.5649 8.46693C89.3012 8.15276 83.0289 0.75 74.9109 0.75H74.8856C66.9695 0.764026 60.5654 8.13592 60.2961 8.4501C59.9791 8.81757 59.8669 9.29164 59.9483 9.73485C59.9707 10.0546 60.0913 10.3716 60.3158 10.6353C60.585 10.9495 66.9892 18.3214 74.9053 18.3354H74.9305C83.0486 18.3354 89.3209 10.9355 89.5845 10.6185C89.8903 10.2538 89.9969 9.79096 89.9212 9.35616V9.36177ZM59.0731 11.6171C58.8655 11.3702 58.7056 11.101 58.5878 10.8176L57.5527 11.3338C56.7841 11.7153 56.4727 12.6494 56.857 13.4152C57.1291 13.9594 57.6789 14.2764 58.2484 14.2764C58.4812 14.2764 58.7168 14.2231 58.9412 14.1137L60.6468 13.2637C59.707 12.3633 59.1516 11.7097 59.0759 11.6171H59.0731ZM63.7857 18.47C63.3565 19.2134 63.6118 20.1615 64.3552 20.5907C64.5992 20.731 64.8657 20.7983 65.1294 20.7983C65.6652 20.7983 66.1869 20.5206 66.4758 20.0213L67.5698 18.125C66.5993 17.665 65.6904 17.1488 64.8573 16.6102L63.7829 18.47H63.7857Z" fill="white"/>
</svg>
