<svg viewBox="0 0 78 22" fill="none" xmlns="http://www.w3.org/2000/svg">
<path d="M33.6873 10.7988C33.6654 10.446 33.5343 10.0962 33.2907 9.80267C32.9972 9.45293 26.0148 1.21204 16.9776 1.21204H16.9495C8.13711 1.22765 1.00791 9.43419 0.70813 9.78394C0.355262 10.193 0.230352 10.7208 0.320911 11.2141C0.345893 11.5701 0.480171 11.923 0.729989 12.2165C1.02977 12.5663 8.15897 20.7728 16.9713 20.7884H16.9994C26.0366 20.7884 33.019 12.5507 33.3126 12.1978C33.653 11.7919 33.7716 11.2766 33.6873 10.7926V10.7988ZM16.9994 17.3347H16.9776C11.4253 17.3253 6.38526 13.0097 4.33362 10.9893C6.39463 8.95953 11.4004 4.67827 16.9557 4.6689H16.9776C22.6922 4.6689 27.6823 9.00013 29.6933 11.0112C27.6698 13.0316 22.6953 17.3316 16.9994 17.3316V17.3347ZM12.1529 11.0018C12.1529 13.6749 14.3201 15.842 16.9932 15.842C19.6662 15.842 21.8334 13.6749 21.8334 11.0018C21.8334 10.7676 21.8116 10.5428 21.7803 10.3179C21.3369 10.7145 20.7436 10.9425 20.1034 10.905C18.8325 10.8301 17.8644 9.73709 17.9394 8.46614C17.9862 7.67609 18.4265 7.0047 19.0573 6.62685C18.4296 6.33019 17.7333 6.16157 16.9963 6.16157C14.3232 6.16157 12.1561 8.32874 12.1561 11.0018H12.1529Z" fill="#23255A"/>
<path opacity="0.25" d="M70.0924 15.2978C69.3158 15.7998 68.4685 16.281 67.5638 16.7099L68.5836 18.4776C68.8529 18.943 69.3393 19.2019 69.8388 19.2019C70.0846 19.2019 70.333 19.1392 70.5605 19.0084C71.2535 18.6083 71.4915 17.7245 71.0914 17.0315L70.0898 15.2978H70.0924ZM60.7151 18.3547H60.7047C60.6419 18.3547 60.5792 18.3494 60.5164 18.3494C60.0928 18.3416 59.6744 18.3181 59.2612 18.2736V20.0387C59.2612 20.8389 59.9097 21.4874 60.7099 21.4874C61.5101 21.4874 62.1586 20.8389 62.1586 20.0387V18.2788C61.7454 18.3207 61.3271 18.3442 60.9034 18.3494C60.8407 18.3494 60.7779 18.3547 60.7151 18.3547ZM76.9045 10.379L75.9395 9.89785C75.8297 10.162 75.6807 10.413 75.4871 10.6431C75.4165 10.7294 74.8988 11.3387 74.0228 12.1781L75.6127 12.9704C75.8192 13.075 76.0415 13.1221 76.2586 13.1221C76.7894 13.1221 77.3019 12.8292 77.5556 12.3193C77.9112 11.6028 77.621 10.7346 76.9071 10.379H76.9045ZM74.6896 8.54067C74.6713 8.24518 74.5614 7.9523 74.3575 7.70649C74.1117 7.41362 68.2646 0.512695 60.6968 0.512695H60.6733C53.2938 0.52577 47.3239 7.39793 47.0728 7.6908C46.7773 8.03337 46.6727 8.4753 46.7486 8.88846C46.7695 9.18657 46.8819 9.48206 47.0911 9.72787C47.3422 10.0207 53.3122 16.8929 60.6916 16.906H60.7151C68.2829 16.906 74.13 10.0077 74.3758 9.71218C74.6608 9.37223 74.7602 8.94076 74.6896 8.53544V8.54067ZM45.9327 10.6431C45.7392 10.413 45.5901 10.162 45.4803 9.89785L44.5154 10.379C43.7989 10.7346 43.5086 11.6054 43.8669 12.3193C44.1205 12.8266 44.633 13.1221 45.1639 13.1221C45.3809 13.1221 45.6006 13.0724 45.8098 12.9704L47.3997 12.1781C46.5237 11.3387 46.0059 10.7294 45.9353 10.6431H45.9327ZM50.3258 17.0315C49.9258 17.7245 50.1637 18.6083 50.8567 19.0084C51.0842 19.1392 51.3326 19.2019 51.5784 19.2019C52.0779 19.2019 52.5643 18.943 52.8336 18.4776L53.8534 16.7099C52.9487 16.281 52.1014 15.7998 51.3248 15.2978L50.3232 17.0315H50.3258Z" fill="#23255A"/>
</svg>
