<svg viewBox="0 0 36 27" fill="none" xmlns="http://www.w3.org/2000/svg">
<path d="M4.44365 2.75901C4.44365 1.32241 4.91613 0.468214 5.91218 0.092886C6.12926 0.015232 6.7039 -0.023595 7.253 0.015232C8.65768 0.105828 18.8224 0.235252 26.7908 0.248194L33.7503 0.274079L34.1717 0.571752C34.3462 0.699217 34.4851 0.797402 34.5957 0.920954C35.0354 1.41211 35.0273 2.30413 35.0273 7.02998C35.0273 12.2069 35.0145 12.3622 34.7591 12.7117C34.6186 12.9058 34.3377 13.1905 34.1461 13.3329C33.8014 13.5917 33.6481 13.6047 29.7917 13.5788C25.4627 13.5529 25.3222 13.527 24.7731 12.8281C24.4922 12.4787 24.3134 12.0257 23.2918 9.20429C22.5001 7.02998 22.1936 6.62876 21.2359 6.47346C20.5719 6.38286 20.0355 6.62876 19.6014 7.22411C19.4354 7.45707 18.899 8.77719 18.4266 10.162C17.1623 13.7988 17.1496 13.7988 14.021 13.7988C12.0289 13.7988 11.5436 13.8765 11.3138 14.2389C11.1768 14.4418 8.49985 21.8121 6.66432 27H0.112702C0.150331 26.8957 0.189293 26.7879 0.229627 26.6764C1.14905 24.1268 3.10283 18.6134 4.02225 15.9343L4.60966 14.2518L4.5075 11.055L4.41811 7.85829L4.07333 7.75475C3.89455 7.69003 3.42207 7.67709 3.03898 7.72886C1.5066 7.923 1.0852 7.87123 0.587181 7.45707C0.267937 7.19823 0.0891599 6.90055 0.025311 6.61582C-0.153466 5.61926 0.63826 4.55799 1.65984 4.42857C3.61362 4.18266 4.25211 4.06618 4.34149 3.92382C4.39257 3.84616 4.44365 3.31553 4.44365 2.75901Z" fill="#23255A"/>
<ellipse cx="12.1777" cy="7.14889" rx="1.3325" ry="1.35397" fill="white"/>
</svg>
