<svg width="25" height="25" viewBox="0 0 25 25" fill="none" xmlns="http://www.w3.org/2000/svg">
<path d="M20.9387 16.5165C21.0814 16.2197 21.2066 15.9148 21.3164 15.6039L21.3165 15.6037C21.4923 15.1052 21.971 14.7695 22.5083 14.7695H23.1152C23.8798 14.7695 24.5 14.1493 24.5 13.3848V11.6152C24.5 10.8507 23.8798 10.2305 23.1152 10.2305H22.5083C21.971 10.2305 21.4923 9.89479 21.3165 9.39634L21.3164 9.39607L20.4875 16.3009M20.9387 16.5165C20.9385 16.5169 20.9383 16.5173 20.9381 16.5176L20.4875 16.3009M20.9387 16.5165C20.9388 16.5162 20.939 16.5159 20.9391 16.5155L20.4875 16.3009M20.9387 16.5165C20.7038 17.0115 20.8002 17.591 21.1808 17.9717L21.6108 18.4016C22.1511 18.942 22.1511 19.8195 21.6108 20.3598L20.3598 21.6108C19.8195 22.1511 18.942 22.1511 18.4016 21.6108L17.9717 21.1808L17.9711 21.1802C17.5919 20.7998 17.0112 20.7025 16.5171 20.9384M20.4875 16.3009C20.1637 16.9822 20.2929 17.7908 20.8273 18.3252L21.2573 18.7552C21.6023 19.1002 21.6023 19.6612 21.2573 20.0062L20.0062 21.2573C19.6612 21.6023 19.1002 21.6023 18.7552 21.2573L18.3252 20.8273C17.7926 20.2929 16.9822 20.1619 16.3009 20.4875M16.5171 20.9384C16.5173 20.9383 16.5174 20.9382 16.5176 20.9381L16.3009 20.4875M16.5171 20.9384C16.5169 20.9385 16.5167 20.9386 16.5165 20.9387L16.3009 20.4875M16.5171 20.9384C16.2201 21.0812 15.915 21.2065 15.6039 21.3164L15.6037 21.3165C15.1052 21.4923 14.7695 21.971 14.7695 22.5083V23.1152C14.7695 23.8798 14.1493 24.5 13.3848 24.5H11.6152C10.8507 24.5 10.2305 23.8798 10.2305 23.1152V22.5083C10.2305 21.971 9.89479 21.4923 9.39634 21.3165L9.39607 21.3164C9.08524 21.2066 8.78034 21.0814 8.48353 20.9387M16.3009 20.4875C16.0213 20.622 15.7329 20.7406 15.4374 20.845L8.69911 20.4875M8.48353 20.9387C8.48314 20.9385 8.48276 20.9383 8.48237 20.9381L8.69911 20.4875M8.48353 20.9387C8.48384 20.9388 8.48415 20.939 8.48446 20.9391L8.69911 20.4875M8.48353 20.9387C7.9885 20.7038 7.409 20.8002 7.02835 21.1808L6.59836 21.6108C6.05805 22.1511 5.18053 22.1511 4.64021 21.6108L3.38918 20.3598C2.84886 19.8195 2.84886 18.942 3.38918 18.4016L3.74273 18.7552C3.39768 19.1002 3.39768 19.6612 3.74273 20.0062L4.99377 21.2573C5.33882 21.6023 5.89975 21.6023 6.24481 21.2573L6.6748 20.8273C7.20919 20.2929 8.01785 20.1637 8.69911 20.4875M3.68358 15.6039C3.79347 15.915 3.91878 16.2201 4.06161 16.5171L20.4875 8.69911L20.9387 8.48351C20.9386 8.48332 20.9385 8.48313 20.9384 8.48294C20.7025 7.98881 20.7998 7.40809 21.1802 7.02894L21.1808 7.02835L21.6108 6.59836C22.1511 6.05805 22.1511 5.18053 21.6108 4.64021L20.3598 3.38918C19.8195 2.84886 18.942 2.84886 18.4016 3.38918L18.7552 3.74273L18.4016 3.38918L17.9717 3.81917C17.591 4.19982 17.0115 4.29616 16.5165 4.06133C16.2197 3.91861 15.9148 3.7934 15.6039 3.68358L15.6037 3.68349C15.1052 3.50771 14.7695 3.02897 14.7695 2.49169V1.88475C14.7695 1.12023 14.1493 0.5 13.3848 0.5H11.6152C10.8507 0.5 10.2305 1.12023 10.2305 1.88475V2.49169C10.2305 3.02897 9.89479 3.50771 9.39634 3.68349L9.39607 3.68358C9.08503 3.79347 8.77993 3.91878 8.48294 4.06161C7.9888 4.29748 7.40809 4.20017 7.02894 3.81975L7.02835 3.81917L6.59836 3.38918C6.05805 2.84886 5.18053 2.84886 4.64022 3.38918L3.38918 4.64022C2.84886 5.18053 2.84886 6.05805 3.38918 6.59836L3.81917 7.02835C4.19982 7.409 4.29616 7.98849 4.06133 8.48352C3.91861 8.78033 3.79339 9.08524 3.68358 9.39607L3.68349 9.39634C3.50771 9.89479 3.02897 10.2305 2.49169 10.2305H1.88475C1.12023 10.2305 0.5 10.8507 0.5 11.6152V13.3848C0.5 14.1493 1.12023 14.7695 1.88475 14.7695H2.49169C3.02897 14.7695 3.50771 15.1052 3.68349 15.6037L3.68358 15.6039ZM12.4982 17.3085C9.84231 17.3085 7.68972 15.1559 7.68972 12.5C7.68972 9.84408 9.84231 7.69149 12.4982 7.69149C15.1542 7.69149 17.3067 9.84408 17.3067 12.5C17.3067 15.1559 15.1542 17.3085 12.4982 17.3085Z" stroke="#23255A"/>
</svg>
