<svg width="600" height="600" viewBox="0 0 600 600" fill="none" xmlns="http://www.w3.org/2000/svg">
<rect width="600" height="600" fill="white"/>
<rect x="25" y="25" width="550" height="550" fill="white" stroke="black" stroke-width="50"/>
<rect x="175" y="175" width="50" height="50" fill="black"/>
<rect x="225" y="175" width="50" height="50" fill="black"/>
<rect x="275" y="175" width="50" height="50" fill="black"/>
<rect x="325" y="175" width="50" height="50" fill="black"/>
<rect x="375" y="175" width="50" height="50" fill="black"/>
<rect x="175" y="225" width="50" height="50" fill="black"/>
<rect x="175" y="275" width="50" height="50" fill="black"/>
<rect x="225" y="275" width="50" height="50" fill="black"/>
<rect x="275" y="275" width="50" height="50" fill="black"/>
<rect x="375" y="275" width="50" height="50" fill="black"/>
<rect x="325" y="275" width="50" height="50" fill="black"/>
<rect x="175" y="325" width="50" height="50" fill="black"/>
<rect x="175" y="375" width="50" height="50" fill="black"/>
<rect x="225" y="375" width="50" height="50" fill="black"/>
<rect x="275" y="375" width="50" height="50" fill="black"/>
<rect x="325" y="375" width="50" height="50" fill="black"/>
<rect x="375" y="375" width="50" height="50" fill="black"/>
</svg>
