<svg width="400" height="400" viewBox="0 0 400 400" fill="none" xmlns="http://www.w3.org/2000/svg">
<rect width="250" height="250" transform="translate(75 75)" fill="white"/>
<rect x="1.5" y="1.5" width="397" height="397" rx="28.5" fill="white" stroke="black" stroke-width="3"/>
<rect x="75" y="75" width="50" height="50" fill="black"/>
<rect x="125" y="75" width="50" height="50" fill="black"/>
<rect x="175" y="75" width="50" height="50" fill="black"/>
<rect x="225" y="75" width="50" height="50" fill="black"/>
<rect x="275" y="75" width="50" height="50" fill="black"/>
<rect x="75" y="125" width="50" height="50" fill="black"/>
<rect x="75" y="175" width="50" height="50" fill="black"/>
<rect x="125" y="175" width="50" height="50" fill="black"/>
<rect x="175" y="175" width="50" height="50" fill="black"/>
<rect x="275" y="175" width="50" height="50" fill="black"/>
<rect x="225" y="175" width="50" height="50" fill="black"/>
<rect x="75" y="225" width="50" height="50" fill="black"/>
<rect x="75" y="275" width="50" height="50" fill="black"/>
<rect x="125" y="275" width="50" height="50" fill="black"/>
<rect x="175" y="275" width="50" height="50" fill="black"/>
<rect x="225" y="275" width="50" height="50" fill="black"/>
<rect x="275" y="275" width="50" height="50" fill="black"/>
</svg>
